PathFileType	4	(X/Y/Z)	C:/Users/opensim2020/Desktop/walking_exp_matlab/subject03_walking05_straight_01.trc	
DataRate	CameraRate	NumFrames	NumMarkers	Units	OrigDataRate	OrigDataStartFrame	OrigNumFrames	
100.00	100.00	7	45	mm	100.00	876	298	
Frame#	Time	LFHD			RFHD			LBHD			RBHD			C7			T10			CLAV			STRN			RBAK			LSHO			LUPA			LELB			LFRM			LWRA			LWRB			LFIN			RSHO			RUPA			RELB			RFRM			RWRA			RWRB			RFIN			LASI			RASI			LPSI			RPSI			LTHI			LKNE			LTIB			LANK			LHEE			LTOE			RTHI			RKNE			RTIB			RANK			RHEE			RTOE			*39			*40			*41			*42			*43			*44			
		X1	Y1	Z1	X2	Y2	Z2	X3	Y3	Z3	X4	Y4	Z4	X5	Y5	Z5	X6	Y6	Z6	X7	Y7	Z7	X8	Y8	Z8	X9	Y9	Z9	X10	Y10	Z10	X11	Y11	Z11	X12	Y12	Z12	X13	Y13	Z13	X14	Y14	Z14	X15	Y15	Z15	X16	Y16	Z16	X17	Y17	Z17	X18	Y18	Z18	X19	Y19	Z19	X20	Y20	Z20	X21	Y21	Z21	X22	Y22	Z22	X23	Y23	Z23	X24	Y24	Z24	X25	Y25	Z25	X26	Y26	Z26	X27	Y27	Z27	X28	Y28	Z28	X29	Y29	Z29	X30	Y30	Z30	X31	Y31	Z31	X32	Y32	Z32	X33	Y33	Z33	X34	Y34	Z34	X35	Y35	Z35	X36	Y36	Z36	X37	Y37	Z37	X38	Y38	Z38	X39	Y39	Z39	X40	Y40	Z40	X41	Y41	Z41	X42	Y42	Z42	X43	Y43	Z43	X44	Y44	Z44	X45	Y45	Z45	

150	1.490	-1091.89563	81.17275	1625.79211	-960.66193	56.46416	1633.05481	-1109.50500	-44.02266	1577.30737	-979.97327	-63.16946	1584.09680	-1046.30042	-78.73775	1420.99609	-1039.25317	-113.17684	1108.44373	-1036.07300	42.36271	1344.22742	-1039.72681	86.87012	1179.07104	-949.66431	-136.24976	1245.75232	-1194.84204	8.77760	1379.78674	-1266.60339	8.51029	1181.79822	-1280.07800	19.16664	1059.75085	-1278.93042	48.63165	932.39380	-1249.16370	66.82262	814.67267	-1302.14990	49.63627	820.15155	-1292.78687	67.24226	737.99133	-879.43243	-11.70060	1368.71851	-808.15417	-5.01395	1145.98059	-798.65558	16.82174	1034.31873	-801.44141	42.51758	899.92212	-843.04565	74.52146	807.63263	-795.18030	49.88301	799.85150	-810.73303	76.49636	730.82648	-1157.10364	50.85018	944.11554	-918.61053	52.70239	941.39624	-1105.08081	-109.94428	970.05371	-955.61890	-107.03266	971.97144	-1188.94995	-2.98887	642.39258	-1145.13293	5.93840	465.17862	-1145.36731	-38.42606	275.40176	-1101.43860	-46.08672	65.61561	-1065.47205	-85.34798	30.03087	-1076.82312	108.03205	30.29708	-872.72839	44.45620	644.63098	-895.15002	94.63044	472.09891	-887.88739	-39.71379	338.41611	-922.07550	-194.50008	187.56458	-974.85522	-249.23264	189.89107	-934.17596	-121.81440	65.58032																		 
151	1.500	-1091.76099	90.82316	1625.76074	-960.53137	65.99518	1632.74805	-1109.57324	-34.55670	1577.88660	-979.96539	-53.73515	1584.42480	-1046.86865	-70.02862	1421.26331	-1039.90820	-104.25925	1108.56799	-1036.47205	51.13436	1344.32849	-1040.51013	95.77851	1179.30786	-950.62964	-127.69215	1245.84998	-1195.17651	17.75175	1380.55847	-1267.56433	20.39606	1183.17358	-1280.92871	33.64941	1061.30371	-1279.72217	65.88010	934.70941	-1249.98743	86.32076	817.40057	-1303.15674	69.70953	822.63379	-1294.21838	90.41802	741.42896	-879.96991	-3.43217	1368.78857	-808.89172	1.72973	1145.95178	-799.22925	22.79604	1034.21033	-801.49432	47.62991	899.58136	-842.79480	79.77272	807.08899	-795.40234	54.32379	799.54559	-810.19568	80.91094	730.52942	-1158.11084	59.44193	944.04700	-919.53027	62.07040	941.99396	-1105.47217	-101.13152	970.16241	-956.03894	-97.76385	972.30646	-1189.56958	3.17819	641.92041	-1145.57422	10.68044	464.97568	-1145.64233	-35.75750	275.58377	-1101.52417	-45.91659	65.80795	-1065.54224	-85.14052	30.09875	-1076.74414	108.09163	30.20569	-874.42511	57.98665	645.65302	-897.30505	112.13458	474.48868	-889.77667	-18.42601	336.73083	-924.16968	-169.19479	181.78438	-976.56342	-224.56897	181.92755	-936.98767	-91.08025	63.66839																		 
152	1.510	-1091.52039	100.57011	1625.60803	-960.24982	75.64099	1632.31873	-1109.58423	-25.06531	1578.45386	-980.00861	-44.37252	1584.70911	-1047.47815	-61.12103	1421.28162	-1040.59521	-95.33960	1108.55859	-1036.87207	59.97247	1344.39331	-1041.23718	104.79607	1179.46240	-951.53613	-118.91523	1245.81213	-1195.46899	26.74179	1381.20813	-1268.42529	31.78934	1184.44482	-1281.86121	47.92633	1062.95630	-1280.54858	83.03755	937.18506	-1250.80457	106.11228	820.51617	-1304.02930	89.80344	825.34113	-1295.51392	113.52450	745.28778	-880.44342	4.71497	1368.76746	-809.52991	8.43143	1145.87842	-799.65192	28.62475	1034.03625	-801.79596	52.68334	899.26642	-842.44861	85.07803	806.66205	-795.55554	58.67503	799.16583	-809.52728	85.33447	730.17529	-1158.89783	68.06924	943.86078	-920.73163	71.57368	942.67548	-1105.82751	-92.38113	970.24280	-956.40424	-88.50583	972.55676	-1190.02295	9.32288	641.86432	-1145.97791	15.40043	464.66229	-1145.83289	-33.09176	275.74057	-1101.54834	-45.68857	66.08826	-1065.36060	-85.30731	30.57718	-1076.89783	108.10448	30.24568	-874.61646	72.39427	647.55835	-899.37665	129.07875	476.85016	-891.75153	2.78011	334.75552	-926.50348	-143.28619	175.00478	-978.43103	-199.03967	173.06151	-940.13794	-59.55891	61.32451																		 
153	1.520	-1091.23853	110.30367	1625.40186	-959.98688	85.27697	1631.77148	-1109.61145	-15.56584	1578.96619	-980.00928	-34.96512	1584.94067	-1047.93457	-52.27930	1421.19360	-1041.25745	-86.46758	1108.50854	-1037.27844	68.81827	1344.37720	-1041.96741	113.63002	1179.51941	-952.42126	-110.26045	1245.67249	-1195.70459	35.68844	1381.75354	-1269.61511	43.34100	1185.60583	-1282.93408	61.93430	1064.54956	-1281.41394	100.12503	939.77533	-1251.50476	125.85648	823.63196	-1304.83057	109.84438	828.23486	-1296.61157	136.34145	749.26801	-880.91638	13.05235	1368.65723	-810.06805	15.29456	1145.70215	-799.91833	34.53008	1033.74365	-801.94904	57.83166	898.87201	-841.97943	90.49170	806.13904	-795.66779	63.09195	798.74713	-808.88159	89.83040	729.72382	-1159.61487	77.07816	943.76733	-921.63751	80.94520	942.95184	-1106.11475	-83.56955	970.01935	-956.71527	-79.23660	972.57043	-1191.01575	15.33254	641.63202	-1146.26392	20.14515	464.41730	-1145.98120	-30.48054	275.86313	-1101.50610	-45.57658	66.39333	-1065.22717	-85.33540	30.99964	-1076.86938	108.25540	30.16278	-875.54749	85.65359	648.71210	-901.31604	145.72873	479.23209	-893.79987	23.87034	332.60098	-928.95544	-116.53341	167.69655	-980.58917	-172.49147	163.33305	-943.37799	-27.26429	58.78596																		 
154	1.530	-1090.93567	120.06642	1625.06384	-959.69409	94.99993	1631.14807	-1109.55481	-6.05060	1579.43201	-979.94720	-25.52697	1584.97278	-1048.37769	-43.45506	1421.10352	-1041.89905	-77.47626	1108.35913	-1037.67139	77.70747	1344.27063	-1042.68762	122.52689	1179.45886	-953.26801	-101.56145	1245.47241	-1195.95862	44.60665	1382.18945	-1270.40417	54.43754	1186.84521	-1284.20984	75.71194	1066.14221	-1282.30396	117.12978	942.38696	-1252.00513	145.78508	826.97241	-1305.78442	130.04781	831.43201	-1297.55103	158.95580	753.31384	-881.41284	21.39030	1368.38257	-810.57007	22.23988	1145.40955	-800.08893	40.51934	1033.34290	-801.92365	63.05536	898.32770	-841.36499	96.08566	805.50916	-795.73566	67.69670	798.19495	-808.35248	94.41782	729.09418	-1160.20117	85.30859	943.58899	-922.41974	90.28254	942.95599	-1106.30530	-74.94521	969.85907	-956.98987	-70.01269	972.50269	-1191.38696	21.94763	641.05719	-1146.59094	24.86244	464.04681	-1146.04138	-27.80201	276.02725	-1101.34119	-45.30377	66.65643	-1065.08264	-84.98225	31.22413	-1076.90771	108.21998	29.93700	-876.44324	98.67955	650.13580	-903.15454	161.60292	481.50125	-895.95886	44.95591	330.20059	-931.44666	-88.82249	160.03741	-982.73804	-144.99141	152.93698	-946.94055	5.70960	56.06154																		 
155	1.540	-1090.53430	129.89705	1624.61084	-959.33197	104.72379	1630.36719	-1109.52417	3.50287	1579.85059	-979.89697	-16.03637	1585.09229	-1048.77209	-34.54177	1420.94531	-1042.59363	-68.62897	1108.15942	-1038.04321	86.57848	1344.03979	-1043.38159	131.57712	1179.29260	-954.13062	-92.84255	1245.10388	-1196.18225	53.56705	1382.43506	-1271.42981	65.62843	1187.88428	-1285.45422	89.21446	1067.60034	-1283.28369	133.95134	945.01953	-1252.90540	165.87421	830.53802	-1306.20764	149.88736	834.38904	-1298.27466	181.23221	757.41357	-881.79053	29.90056	1367.88342	-811.01630	29.18312	1145.00867	-800.26337	46.57076	1032.85803	-801.88361	68.48170	897.74652	-840.77911	101.83380	804.79834	-795.78583	72.48235	797.53632	-808.03589	99.07507	728.29956	-1160.92090	93.81690	943.13153	-923.16937	99.57095	942.83533	-1106.43030	-66.33129	969.54767	-957.23981	-60.85714	972.25745	-1191.45654	28.48802	640.76990	-1146.85925	29.50302	463.73294	-1146.05396	-25.19244	276.19543	-1101.17480	-44.98821	66.97435	-1065.02905	-84.60595	31.60142	-1076.92737	108.35770	29.86913	-877.23151	111.41652	651.23840	-904.84442	176.80861	483.61578	-898.03735	65.82392	327.47879	-934.31842	-60.66409	151.60837	-985.48462	-116.61938	141.99074	-950.14172	39.41942	53.63565																		 
156	1.550	-1090.10925	139.68280	1624.10315	-958.93652	114.43695	1629.50354	-1109.38403	13.10187	1580.12585	-979.80518	-6.53975	1585.02734	-1049.12219	-25.48463	1420.62378	-1043.24670	-59.65676	1107.83606	-1038.35474	95.52278	1343.67700	-1043.95337	140.53096	1178.97144	-954.97394	-84.03073	1244.54834	-1196.41284	62.51082	1382.53955	-1272.41467	76.69545	1188.58582	-1286.74438	102.54433	1068.92529	-1284.29468	150.62589	947.66974	-1253.49670	185.84331	834.23376	-1306.78699	169.67606	837.47626	-1298.87415	203.25336	761.50446	-882.17487	38.43966	1367.33496	-811.37891	36.28007	1144.43530	-800.34314	52.79192	1032.26147	-801.75580	74.05548	897.02118	-840.21503	107.52248	803.94165	-795.81018	77.41981	796.71790	-807.78302	103.75058	727.30530	-1161.71777	102.23620	942.61902	-923.86200	108.86441	942.56390	-1106.49707	-57.70551	969.07690	-957.42773	-51.67453	971.79364	-1192.05200	34.63795	640.43549	-1147.12000	34.10772	463.36118	-1146.04175	-22.61961	276.34637	-1100.98523	-44.64764	67.32540	-1064.75806	-84.50294	32.15374	-1076.96716	108.47677	29.80204	-878.05536	123.48408	652.13843	-906.36078	191.40767	485.50125	-899.96838	86.64591	324.52988	-936.90356	-31.87362	143.19698	-987.77551	-87.58625	131.20525	-953.29156	73.47878	51.21373	-1055.55774	48.69772	1687.41675															 
